<?xml version="1.0" encoding="UTF-8" standalone="no"?>
<!-- Created with Inkscape (http://www.inkscape.org/) -->

<svg
   width="251px"
   height="160px"
   viewBox="0 0 251 160"
   version="1.1"
   id="SVGRoot"
   sodipodi:docname="BHD.svg"
   inkscape:version="1.1 (c68e22c387, 2021-05-23)"
   xmlns:inkscape="http://www.inkscape.org/namespaces/inkscape"
   xmlns:sodipodi="http://sodipodi.sourceforge.net/DTD/sodipodi-0.dtd"
   xmlns="http://www.w3.org/2000/svg"
   xmlns:svg="http://www.w3.org/2000/svg">
  <sodipodi:namedview
     id="namedview6230"
     pagecolor="#ffffff"
     bordercolor="#666666"
     borderopacity="1.0"
     inkscape:pageshadow="2"
     inkscape:pageopacity="0.0"
     inkscape:pagecheckerboard="0"
     inkscape:document-units="px"
     showgrid="false"
     inkscape:zoom="4.2909148"
     inkscape:cx="130.62483"
     inkscape:cy="81.451162"
     inkscape:window-width="1920"
     inkscape:window-height="1001"
     inkscape:window-x="-9"
     inkscape:window-y="-9"
     inkscape:window-maximized="1"
     inkscape:current-layer="layer1" />
  <defs
     id="defs6225" />
  <g
     inkscape:label="Layer 1"
     inkscape:groupmode="layer"
     id="layer1">
    <path
       id="path999"
       style="fill:#8edb1d;fill-opacity:1;stroke:none;stroke-width:0.282644;stroke-linecap:butt;stroke-linejoin:miter;stroke-miterlimit:4;stroke-dasharray:none;stroke-opacity:1"
       d="m 43.025457,0.43917829 c -0.105751,2.3689e-4 -0.16179,0.002105 -0.16179,0.002105 H 1.0251431 V 159.55519 H 42.863667 c 20.666098,0 31.361082,-19.00453 31.216594,-45.09005 0,0 2.384489,-34.684206 -18.426169,-39.670127 0,0 8.270579,-1.316876 12.711765,-14.98805 C 70.146697,54.325107 70.766663,47.221109 70.8287,36.859692 70.906765,23.815405 68.564194,15.009729 64.424484,9.6361921 57.52538,0.68079544 44.612612,0.43458162 43.025457,0.43891785 Z M 89.9042,0.44128329 V 159.55519 h 27.53134 V 91.920117 h 16.04195 v 67.635073 h 27.52908 V 0.44098596 H 133.47749 V 59.838258 H 117.43554 V 0.44098596 Z m 88.44538,0 V 159.55519 h 42.92163 c 0,0 29.04692,8e-5 28.83017,-39.67011 l 0.21784,-78.257079 c 0,0 0.8662,-16.325793 -5.7503,-28.335772 C 240.46027,5.8342855 232.93443,0.44116491 222.13852,0.44116491 Z M 29.423837,27.320817 h 5.069426 c 9.104616,0 9.453537,6.501157 9.453537,20.376577 0,15.174585 -6.936825,15.392527 -6.936825,15.392527 h -7.586138 z m 176.672793,0 h 5.86713 c 10.10934,0 10.10967,10.60399 10.10967,10.60399 v 81.780533 c 0,12.82535 -8.60184,12.75223 -8.60184,12.75223 h -7.37496 z M 29.423837,88.886515 h 6.718776 c 6.720139,0 9.538904,4.983365 9.538904,24.711265 0,6.86841 -0.774449,11.45193 -2.310018,14.22854 -2.680866,4.84728 -6.795194,4.63125 -6.795194,4.63125 h -7.152468 z" />
  </g>
</svg>
